<svg xmlns="http://www.w3.org/2000/svg" width="1024" height="1024"><path d="M152.3-.3h25.8a10818.8 10818.8 0 0 1 49.7 0A58024.4 58024.4 0 0 1 340-.3h114.1a2761821.2 2761821.2 0 0 1 241-.2h3.2a47262.1 47262.1 0 0 0 160 0C896.8-.7 934 6.3 965 31l3 2.3a154 154 0 0 1 55.6 102.2c1.2 10.7 1 21.6 1 32.4v11.4a5404.4 5404.4 0 0 1 0 49.7 28817.5 28817.5 0 0 1 0 115.1 136129.2 136129.2 0 0 1 0 221.7 135584.5 135584.5 0 0 1 0 292.5c0 45-10.4 86.6-42.6 119.7a146.7 146.7 0 0 1-28.3 23.1c-30 19.1-62.2 23.4-97 23.3h-11.5a7212.7 7212.7 0 0 1-49.7 0 37840 37840 0 0 1-115.2 0h-90.8a1362321.8 1362321.8 0 0 1-260.9.1h-3a46507.5 46507.5 0 0 0-159.9 0c-21.3.1-42.6-.9-62.9-8l-3-1A139.2 139.2 0 0 1 59 993l-2.7-2.1a153.9 153.9 0 0 1-56-102.4c-1-10.7-.9-21.6-.8-32.4v-11.4a5404.4 5404.4 0 0 1 0-49.7A28817.5 28817.5 0 0 1-.5 680a136129.1 136129.1 0 0 1 0-221.7 135584.5 135584.5 0 0 1 0-292.5c-.1-23 1.4-45 9.5-66.7l.8-2C23.5 59.8 52.4 29.6 88 13A158 158 0 0 1 152.3-.3Z"/><path d="M527.8 242.6a9580.5 9580.5 0 0 0 74 .1 35245.8 35245.8 0 0 0 71.4.1l109.8.2v204l-58.7.1a163488.7 163488.7 0 0 0-56 .2h-2.5a53481.4 53481.4 0 0 1-144.3.4 71.3 71.3 0 0 0-50.8 20.4 63.9 63.9 0 0 0-18 45.8v3.2a60.7 60.7 0 0 0 17 42.8c16.4 15.3 35.8 19 57.4 18.4 7-.3 13.3-1.2 19.9-3.3l2.7-.8a50.4 50.4 0 0 0 28-24.2c7.5-16 8.9-33.6 3.6-50.5A62.1 62.1 0 0 0 543 461v-1a16005.7 16005.7 0 0 1 129.9-.8 1542.4 1542.4 0 0 0 34-.2c9.3-.1 16 .2 23.1 7l2 2a659.8 659.8 0 0 0 7.5 7.2l2 2a166.6 166.6 0 0 1 41.5 77.5c3.6 14.8 4.4 29.8 4.4 45v2.5c-.1 47.1-14.5 90.3-48.2 124A143.2 143.2 0 0 1 705 750l-2 1c-13.5 7-27.5 11.7-42 16l-2.2.7c-11 3.3-22.3 5-33.6 6.9-2.4.4-2.4.4-5.2 1.4a228.3 228.3 0 0 1-15 1.5l-4.2.4-9.7.9-4.4.5a215.8 215.8 0 0 1-27 .8H536a24691 24691 0 0 1-102.4 0h-75.4L242 780V578h111l-7-11a45 45 0 0 0-12.8-1h-3.8l-11.8.4a631 631 0 0 1-19 .5c-5 0-8.3 0-12.3-2.8a75.5 75.5 0 0 1-6.3-7.1l-1.5-1.7A130.5 130.5 0 0 1 262 530l-1-2c-20-38.9-25-87-18-130l.4-2.5A170 170 0 0 1 287 303l2-2.2c32-34.3 84.2-47.9 129-53.8l4-.5c35.1-4.5 70.4-4 105.8-4Z" fill="#FEFEFE"/></svg>